<svg xmlns="http://www.w3.org/2000/svg" xmlns:xlink="http://www.w3.org/1999/xlink" viewBox="0 0 120 40"><defs><style>.cls-1{fill:none;}.cls-2{clip-path:url(#clip-path);}.cls-3{fill:#fff;}.cls-4{opacity:0.08;fill:url(#linear-gradient);}</style><clipPath id="clip-path"><rect class="cls-1" x="-25" y="-437" width="180" height="180" rx="48"/></clipPath><linearGradient id="linear-gradient" x1="78.42" y1="-378.51" x2="78.42" y2="3.11" gradientUnits="userSpaceOnUse"><stop offset="0.35" stop-opacity="0"/><stop offset="1"/></linearGradient></defs><g id="Layer_1" data-name="Layer 1"><g class="cls-2"><path class="cls-3" d="M154.35-224.73c-8.75-109-15-162-98-152.75S4.05-286.19,31.72-175,105.59,3.11,105.59,3.11"/><path class="cls-4" d="M154.35-224.73c-8.75-109-15-162-98-152.75S4.05-286.19,31.72-175,105.59,3.11,105.59,3.11"/></g><g id="Download_on_the_App_Store_Badge_US-UK_RGB_wht_092917" data-name="Download on the App Store Badge US-UK RGB wht 092917"><g id="Group_1055" data-name="Group 1055"><g id="Group_1053" data-name="Group 1053"><g id="Path_1914" data-name="Path 1914"><path d="M109.13,1h3.17a12.46,12.46,0,0,1,1.84.16,6,6,0,0,1,1.62.53,5.49,5.49,0,0,1,2.36,2.36,5.41,5.41,0,0,1,.53,1.62,12.71,12.71,0,0,1,.17,1.83v1c0,.35,0,.71,0,1.07V30.47c0,.36,0,.72,0,1.09v.91a12.72,12.72,0,0,1-.17,1.85,5.52,5.52,0,0,1-.52,1.61,5.8,5.8,0,0,1-1,1.37,5.39,5.39,0,0,1-1.37,1,5.5,5.5,0,0,1-1.62.53,11.51,11.51,0,0,1-1.87.17H7.7a12.46,12.46,0,0,1-1.84-.16,5.72,5.72,0,0,1-1.62-.54,5.45,5.45,0,0,1-2.36-2.36,5.44,5.44,0,0,1-.53-1.61,12.74,12.74,0,0,1-.17-1.87c0-.3,0-.59,0-.89V8.44c0-.29,0-.59,0-.91a12.72,12.72,0,0,1,.17-1.85,5.44,5.44,0,0,1,.53-1.61A5.6,5.6,0,0,1,4.24,1.71a5.54,5.54,0,0,1,1.61-.53A12.73,12.73,0,0,1,7.71,1H109.13m1.17-1H7.69a13.39,13.39,0,0,0-2,.18,6.44,6.44,0,0,0-1.9.63A6.07,6.07,0,0,0,2.17,2,6.07,6.07,0,0,0,1,3.62a6.44,6.44,0,0,0-.63,1.9,13.39,13.39,0,0,0-.18,2c0,.31,0,.62,0,.92V31.56c0,.31,0,.61,0,.92a13.39,13.39,0,0,0,.18,2A6.44,6.44,0,0,0,1,36.38,6.07,6.07,0,0,0,2.17,38a6.07,6.07,0,0,0,1.62,1.18,6.54,6.54,0,0,0,1.9.63,13.39,13.39,0,0,0,2,.18H112.31a13.51,13.51,0,0,0,2-.18,6.74,6.74,0,0,0,1.9-.63A6.28,6.28,0,0,0,117.84,38a6.33,6.33,0,0,0,1.8-3.51,13.39,13.39,0,0,0,.18-2v-.93c0-.36,0-.72,0-1.09V9.54c0-.37,0-.73,0-1.1V7.52a13.39,13.39,0,0,0-.18-2,6.72,6.72,0,0,0-.62-1.9,6.53,6.53,0,0,0-2.8-2.8A6.78,6.78,0,0,0,114.31.2a13.39,13.39,0,0,0-2-.18h-2Z"/></g></g><g id="_Group_" data-name=" Group "><g id="_Group_2" data-name=" Group 2"><g id="_Group_3" data-name=" Group 3"><path id="_Path_" data-name=" Path " d="M25.17,19.89a5.16,5.16,0,0,1,2.45-4.32,5.25,5.25,0,0,0-4.15-2.24c-1.75-.19-3.44,1-4.33,1s-2.28-1-3.75-1a5.53,5.53,0,0,0-4.65,2.84c-2,3.48-.51,8.6,1.41,11.41,1,1.38,2.09,2.92,3.57,2.87s2-.92,3.72-.92,2.23.92,3.73.88,2.53-1.38,3.46-2.77a11.76,11.76,0,0,0,1.58-3.22A5,5,0,0,1,25.17,19.89Z"/><path id="_Path_2" data-name=" Path 2" d="M22.33,11.48a5.05,5.05,0,0,0,1.15-3.63,5.14,5.14,0,0,0-3.33,1.72A4.85,4.85,0,0,0,19,13.07,4.24,4.24,0,0,0,22.33,11.48Z"/></g></g><g id="Group_1054" data-name="Group 1054"><path id="Path_1916" data-name="Path 1916" d="M42.47,27.14H37.74L36.6,30.5h-2l4.48-12.42h2.08L45.65,30.5h-2Zm-4.24-1.55H42l-1.85-5.45h-.05Z"/><path id="Path_1917" data-name="Path 1917" d="M55.33,26c0,2.81-1.51,4.62-3.78,4.62A3.08,3.08,0,0,1,48.7,29h0v4.48H46.8v-12h1.8V23h0a3.22,3.22,0,0,1,2.89-1.6C53.81,21.35,55.33,23.16,55.33,26Zm-1.91,0c0-1.83-1-3-2.39-3s-2.38,1.23-2.38,3S49.61,29,51,29,53.42,27.82,53.42,26Z"/><path id="Path_1918" data-name="Path 1918" d="M65.29,26c0,2.81-1.5,4.62-3.77,4.62A3.07,3.07,0,0,1,58.67,29h0v4.48H56.77v-12h1.8V23h0a3.21,3.21,0,0,1,2.89-1.6C63.78,21.35,65.29,23.16,65.29,26Zm-1.91,0c0-1.83-.94-3-2.39-3s-2.37,1.23-2.37,3S59.57,29,61,29,63.38,27.82,63.38,26Z"/><path id="Path_1919" data-name="Path 1919" d="M71.88,27c.14,1.23,1.33,2,3,2s2.69-.81,2.69-1.92-.68-1.54-2.29-1.94l-1.61-.39c-2.28-.55-3.34-1.61-3.34-3.35,0-2.14,1.87-3.61,4.52-3.61s4.43,1.47,4.49,3.61H77.43c-.11-1.23-1.14-2-2.63-2s-2.53.75-2.53,1.86c0,.87.66,1.39,2.26,1.79l1.37.33c2.55.6,3.6,1.63,3.6,3.44,0,2.33-1.85,3.78-4.79,3.78C72,30.7,70.1,29.28,70,27Z"/><path id="Path_1920" data-name="Path 1920" d="M83.52,19.3v2.14h1.72v1.48H83.52v5c0,.77.34,1.13,1.1,1.13a4.17,4.17,0,0,0,.61,0v1.46a4.49,4.49,0,0,1-1,.09c-1.84,0-2.55-.69-2.55-2.44v-5.2H80.33V21.44h1.32V19.3Z"/><path id="Path_1921" data-name="Path 1921" d="M86.23,26c0-2.85,1.68-4.64,4.3-4.64s4.29,1.79,4.29,4.64-1.66,4.64-4.29,4.64S86.23,28.83,86.23,26Zm6.7,0c0-1.95-.9-3.11-2.4-3.11S88.13,24,88.13,26s.9,3.11,2.4,3.11S92.93,27.93,92.93,26Z"/><path id="Path_1922" data-name="Path 1922" d="M96.35,21.44h1.78V23h0a2.16,2.16,0,0,1,2.18-1.63,2.65,2.65,0,0,1,.63.07v1.73a2.6,2.6,0,0,0-.83-.11,1.88,1.88,0,0,0-2,1.8c0,.09,0,.19,0,.29V30.5H96.35Z"/><path id="Path_1923" data-name="Path 1923" d="M109.55,27.84c-.25,1.64-1.85,2.77-3.9,2.77-2.63,0-4.27-1.77-4.27-4.6s1.65-4.68,4.19-4.68,4.08,1.72,4.08,4.46v.64h-6.39v.11a2.36,2.36,0,0,0,2.14,2.56h.29a2.07,2.07,0,0,0,2.1-1.28Zm-6.28-2.7h4.53a2.19,2.19,0,0,0-2-2.3h-.17a2.29,2.29,0,0,0-2.31,2.28v0Z"/></g></g></g><g id="_Group_4" data-name=" Group 4"><g id="Group_1056" data-name="Group 1056"><path id="Path_1924" data-name="Path 1924" d="M38,8.73a2.65,2.65,0,0,1,2.82,2.45,2.27,2.27,0,0,1,0,.52c0,1.91-1,3-2.8,3H35.84v-6Zm-1.23,5.12h1.12a1.87,1.87,0,0,0,2-1.76,1.64,1.64,0,0,0,0-.38,1.88,1.88,0,0,0-1.61-2.12,2.11,2.11,0,0,0-.36,0H36.77Z"/><path id="Path_1925" data-name="Path 1925" d="M41.85,12.44A2.13,2.13,0,0,1,46.1,12a2.67,2.67,0,0,1,0,.4,2.14,2.14,0,0,1-4.25.43A3.08,3.08,0,0,1,41.85,12.44Zm3.33,0c0-1-.43-1.54-1.2-1.54s-1.21.57-1.21,1.54S43.2,14,44,14,45.18,13.42,45.18,12.44Z"/><path id="Path_1926" data-name="Path 1926" d="M51.74,14.7h-.92l-.93-3.32h-.07l-.93,3.32H48l-1.24-4.5h.9l.81,3.44h.06l.93-3.44h.85l.93,3.44h.07l.8-3.44H53Z"/><path id="Path_1927" data-name="Path 1927" d="M54,10.2h.86v.71h.06a1.36,1.36,0,0,1,1.35-.8,1.46,1.46,0,0,1,1.57,1.35,1.82,1.82,0,0,1,0,.33V14.7H57V12c0-.73-.32-1.09-1-1.09a1,1,0,0,0-1.08,1,.75.75,0,0,0,0,.15V14.7H54Z"/><path id="Path_1928" data-name="Path 1928" d="M59.26,8.44h.89V14.7h-.89Z"/><path id="Path_1929" data-name="Path 1929" d="M61.39,12.44a2.13,2.13,0,1,1,4.25-.39,2.54,2.54,0,0,1,0,.39,2.14,2.14,0,0,1-4.25.42A1.48,1.48,0,0,1,61.39,12.44Zm3.33,0c0-1-.44-1.54-1.21-1.54s-1.2.57-1.2,1.54S62.74,14,63.51,14,64.72,13.42,64.72,12.44Z"/><path id="Path_1930" data-name="Path 1930" d="M66.57,13.42c0-.81.6-1.27,1.67-1.34L69.46,12v-.39c0-.47-.31-.74-.92-.74s-.84.18-.94.5h-.86c.1-.78.82-1.27,1.84-1.27s1.77.56,1.77,1.51V14.7H69.5v-.63h-.07a1.52,1.52,0,0,1-1.36.7,1.36,1.36,0,0,1-1.49-1.21s0-.09,0-.13Zm2.9-.38v-.38l-1.1.07c-.62,0-.9.26-.9.65s.35.64.83.64a1.06,1.06,0,0,0,1.17-.94Z"/><path id="Path_1931" data-name="Path 1931" d="M71.52,12.44c0-1.42.73-2.32,1.87-2.32a1.48,1.48,0,0,1,1.38.79h.06V8.44h.89V14.7h-.85V14H74.8a1.57,1.57,0,0,1-1.41.79C72.24,14.77,71.52,13.87,71.52,12.44Zm.92,0c0,1,.45,1.53,1.2,1.53s1.21-.58,1.21-1.52-.47-1.53-1.21-1.53S72.44,11.5,72.44,12.44Z"/><path id="Path_1932" data-name="Path 1932" d="M79.4,12.44a2.13,2.13,0,0,1,4.25-.4,2.67,2.67,0,0,1,0,.4,2.14,2.14,0,0,1-4.25.43A3.08,3.08,0,0,1,79.4,12.44Zm3.33,0c0-1-.44-1.54-1.21-1.54s-1.2.57-1.2,1.54S80.75,14,81.52,14,82.73,13.42,82.73,12.44Z"/><path id="Path_1933" data-name="Path 1933" d="M84.84,10.2h.85v.71h.07a1.33,1.33,0,0,1,1.34-.8,1.46,1.46,0,0,1,1.57,1.35,1.22,1.22,0,0,1,0,.33V14.7h-.89V12c0-.73-.31-1.09-1-1.09a1,1,0,0,0-1.08,1,.76.76,0,0,0,0,.15V14.7h-.89Z"/><path id="Path_1934" data-name="Path 1934" d="M93.68,9.07v1.15h1V11h-1v2.31c0,.47.2.68.64.68l.34,0v.74a2.59,2.59,0,0,1-.48,0c-1,0-1.38-.35-1.38-1.21V11h-.72v-.74h.72V9.07Z"/><path id="Path_1935" data-name="Path 1935" d="M95.87,8.44h.88v2.48h.07a1.38,1.38,0,0,1,1.37-.81,1.49,1.49,0,0,1,1.57,1.4,1.32,1.32,0,0,1,0,.28V14.7h-.89V12c0-.72-.33-1.08-1-1.08a1,1,0,0,0-1.13,1,.54.54,0,0,0,0,.18V14.7h-.89Z"/><path id="Path_1936" data-name="Path 1936" d="M104.93,13.48a1.82,1.82,0,0,1-2,1.3,2,2,0,0,1-2.1-2,1.83,1.83,0,0,1,0-.33,2.09,2.09,0,0,1,1.78-2.34,1.51,1.51,0,0,1,.3,0c1.25,0,2,.85,2,2.27v.31H101.8v.05A1.19,1.19,0,0,0,102.89,14H103a1.1,1.1,0,0,0,1.08-.55ZM101.8,12h2.28a1.09,1.09,0,0,0-1-1.16H103A1.17,1.17,0,0,0,101.8,12Z"/></g></g></g></g></svg>